<svg xmlns="http://www.w3.org/2000/svg" version="1.1" xmlns:xlink="http://www.w3.org/1999/xlink" xmlns:svgjs="http://svgjs.dev/svgjs" viewBox="0 0 800 800" opacity="0.18"><defs><linearGradient x1="50%" y1="0%" x2="50%" y2="100%" id="rrreflection-grad"><stop stop-color="hsl(205, 69%, 60%)" stop-opacity="1" offset="45%"></stop><stop stop-color="hsl(205, 69%, 80%)" stop-opacity="1" offset="100%"></stop></linearGradient><linearGradient x1="50%" y1="0%" x2="50%" y2="100%" id="rrreflection-grad-2"><stop stop-color="hsl(205, 69%, 80%)" stop-opacity="1" offset="0%"></stop><stop stop-color="hsl(205, 69%, 60%)" stop-opacity="1" offset="45%"></stop></linearGradient><linearGradient gradientTransform="rotate(270)" x1="50%" y1="0%" x2="50%" y2="100%" id="rrreflection-grad-3"><stop stop-color="hsl(205, 69%, 60%)" stop-opacity="1" offset="45%"></stop><stop stop-color="hsl(205, 69%, 80%)" stop-opacity="1" offset="100%"></stop></linearGradient><linearGradient gradientTransform="rotate(270)" x1="50%" y1="0%" x2="50%" y2="100%" id="rrreflection-grad-4"><stop stop-color="hsl(205, 69%, 80%)" stop-opacity="1" offset="0%"></stop><stop stop-color="hsl(205, 69%, 60%)" stop-opacity="1" offset="45%"></stop></linearGradient></defs><g stroke-width="1.5" stroke="url(#rrreflection-grad)" fill="none"><circle r="385" cx="50%" cy="0"></circle><circle r="367.5" cx="50%" cy="0"></circle><circle r="350" cx="50%" cy="0"></circle><circle r="332.5" cx="50%" cy="0"></circle><circle r="315" cx="50%" cy="0"></circle><circle r="297.5" cx="50%" cy="0"></circle><circle r="280" cx="50%" cy="0"></circle><circle r="262.5" cx="50%" cy="0"></circle><circle r="245" cx="50%" cy="0"></circle><circle r="227.5" cx="50%" cy="0"></circle><circle r="210" cx="50%" cy="0"></circle><circle r="192.5" cx="50%" cy="0"></circle><circle r="175" cx="50%" cy="0"></circle><circle r="157.5" cx="50%" cy="0"></circle><circle r="140" cx="50%" cy="0"></circle><circle r="122.5" cx="50%" cy="0"></circle><circle r="105" cx="50%" cy="0"></circle><circle r="87.5" cx="50%" cy="0"></circle><circle r="70" cx="50%" cy="0"></circle><circle r="52.5" cx="50%" cy="0"></circle><circle r="35" cx="50%" cy="0"></circle><circle r="17.5" cx="50%" cy="0"></circle></g><g stroke-width="1.5" stroke="url(#rrreflection-grad-2)" fill="none"><circle r="385" cx="50%" cy="100%"></circle><circle r="367.5" cx="50%" cy="100%"></circle><circle r="350" cx="50%" cy="100%"></circle><circle r="332.5" cx="50%" cy="100%"></circle><circle r="315" cx="50%" cy="100%"></circle><circle r="297.5" cx="50%" cy="100%"></circle><circle r="280" cx="50%" cy="100%"></circle><circle r="262.5" cx="50%" cy="100%"></circle><circle r="245" cx="50%" cy="100%"></circle><circle r="227.5" cx="50%" cy="100%"></circle><circle r="210" cx="50%" cy="100%"></circle><circle r="192.5" cx="50%" cy="100%"></circle><circle r="175" cx="50%" cy="100%"></circle><circle r="157.5" cx="50%" cy="100%"></circle><circle r="140" cx="50%" cy="100%"></circle><circle r="122.5" cx="50%" cy="100%"></circle><circle r="105" cx="50%" cy="100%"></circle><circle r="87.5" cx="50%" cy="100%"></circle><circle r="70" cx="50%" cy="100%"></circle><circle r="52.5" cx="50%" cy="100%"></circle><circle r="35" cx="50%" cy="100%"></circle><circle r="17.5" cx="50%" cy="100%"></circle></g><g stroke-width="1.5" stroke="url(#rrreflection-grad-3)" fill="none"><circle r="385" cx="0" cy="50%"></circle><circle r="367.5" cx="0" cy="50%"></circle><circle r="350" cx="0" cy="50%"></circle><circle r="332.5" cx="0" cy="50%"></circle><circle r="315" cx="0" cy="50%"></circle><circle r="297.5" cx="0" cy="50%"></circle><circle r="280" cx="0" cy="50%"></circle><circle r="262.5" cx="0" cy="50%"></circle><circle r="245" cx="0" cy="50%"></circle><circle r="227.5" cx="0" cy="50%"></circle><circle r="210" cx="0" cy="50%"></circle><circle r="192.5" cx="0" cy="50%"></circle><circle r="175" cx="0" cy="50%"></circle><circle r="157.5" cx="0" cy="50%"></circle><circle r="140" cx="0" cy="50%"></circle><circle r="122.5" cx="0" cy="50%"></circle><circle r="105" cx="0" cy="50%"></circle><circle r="87.5" cx="0" cy="50%"></circle><circle r="70" cx="0" cy="50%"></circle><circle r="52.5" cx="0" cy="50%"></circle><circle r="35" cx="0" cy="50%"></circle><circle r="17.5" cx="0" cy="50%"></circle></g><g stroke-width="1.5" stroke="url(#rrreflection-grad-4)" fill="none"><circle r="385" cx="100%" cy="50%"></circle><circle r="367.5" cx="100%" cy="50%"></circle><circle r="350" cx="100%" cy="50%"></circle><circle r="332.5" cx="100%" cy="50%"></circle><circle r="315" cx="100%" cy="50%"></circle><circle r="297.5" cx="100%" cy="50%"></circle><circle r="280" cx="100%" cy="50%"></circle><circle r="262.5" cx="100%" cy="50%"></circle><circle r="245" cx="100%" cy="50%"></circle><circle r="227.5" cx="100%" cy="50%"></circle><circle r="210" cx="100%" cy="50%"></circle><circle r="192.5" cx="100%" cy="50%"></circle><circle r="175" cx="100%" cy="50%"></circle><circle r="157.5" cx="100%" cy="50%"></circle><circle r="140" cx="100%" cy="50%"></circle><circle r="122.5" cx="100%" cy="50%"></circle><circle r="105" cx="100%" cy="50%"></circle><circle r="87.5" cx="100%" cy="50%"></circle><circle r="70" cx="100%" cy="50%"></circle><circle r="52.5" cx="100%" cy="50%"></circle><circle r="35" cx="100%" cy="50%"></circle><circle r="17.5" cx="100%" cy="50%"></circle></g></svg>